<svg width="24" height="24" viewBox="0 0 24 24" fill="none" xmlns="http://www.w3.org/2000/svg">
<path fill-rule="evenodd" clip-rule="evenodd" d="M2.9304 5.9052C1.3116 5.9052 0 4.5828 0 2.952C0 1.3224 1.3116 0 2.9304 0C4.548 0 5.8596 1.3224 5.8596 2.952C5.8608 4.5828 4.548 5.9052 2.9304 5.9052ZM24 24H19.2V15.6012C19.2 13.2972 18.1836 12.012 16.3608 12.012C14.3772 12.012 13.2 13.3512 13.2 15.6012V24H8.4V8.4H13.2V10.1544C13.2 10.1544 14.706 7.512 18.0996 7.512C21.4944 7.512 24 9.5832 24 13.8696V24ZM6 24H0V8.4H6V24Z" fill="white"/>
</svg>
