<svg width="40" height="40" viewBox="0 0 40 40" fill="none" xmlns="http://www.w3.org/2000/svg">
<circle cx="20" cy="20" r="20" fill="#051480"/>
<path fill-rule="evenodd" clip-rule="evenodd" d="M11.5425 20.736L15.3531 16.1711C15.7394 15.6745 15.9325 15.4262 16.0337 15.1477C16.1233 14.9013 16.1603 14.6389 16.1425 14.3773C16.1224 14.0817 16.0055 13.7896 15.7719 13.2055L14.8806 10.9774C14.5348 10.1129 14.3619 9.6807 14.0637 9.39739C13.8009 9.14775 13.4715 8.97935 13.1153 8.91246C12.711 8.83655 12.2594 8.94946 11.3561 9.17526L8.88892 9.79213C8.88892 22.3327 17.6671 31.1111 30.2082 31.1111L30.8248 28.6436C31.0506 27.7405 31.1635 27.2888 31.0876 26.8846C31.0206 26.5283 30.8523 26.199 30.6027 25.9361C30.3194 25.6379 29.8871 25.465 29.0226 25.1192L27.0343 24.3239C26.3679 24.0573 26.0347 23.924 25.7025 23.9138C25.4088 23.9048 25.1172 23.9646 24.8508 24.0887C24.5495 24.2289 24.2958 24.4827 23.7882 24.9902L19.9177 28.7998" fill="white"/>
<path d="M11.5425 20.736L15.3531 16.1711C15.7394 15.6745 15.9325 15.4262 16.0337 15.1477C16.1233 14.9013 16.1603 14.6389 16.1425 14.3773C16.1224 14.0817 16.0055 13.7896 15.7719 13.2055L14.8806 10.9774C14.5348 10.1129 14.3619 9.6807 14.0637 9.39739C13.8009 9.14775 13.4715 8.97935 13.1153 8.91246C12.711 8.83655 12.2594 8.94946 11.3561 9.17526L8.88892 9.79213C8.88892 22.3327 17.6671 31.1111 30.2082 31.1111L30.8248 28.6436C31.0506 27.7405 31.1635 27.2888 31.0876 26.8846C31.0206 26.5283 30.8523 26.199 30.6027 25.9361C30.3194 25.6379 29.8871 25.465 29.0226 25.1192L27.0343 24.3239C26.3679 24.0573 26.0347 23.924 25.7025 23.9138C25.4088 23.9048 25.1172 23.9646 24.8508 24.0887C24.5495 24.2289 24.2958 24.4827 23.7882 24.9902L19.9177 28.7998" stroke="white" stroke-width="1.73611" stroke-linecap="round" stroke-linejoin="round"/>
</svg>
