<svg width="40" height="40" viewBox="0 0 40 40" fill="none" xmlns="http://www.w3.org/2000/svg">
<circle cx="20" cy="20" r="20" fill="white"/>
<path fill-rule="evenodd" clip-rule="evenodd" d="M11.5423 20.736L15.3529 16.1711C15.7391 15.6745 15.9323 15.4262 16.0335 15.1477C16.123 14.9013 16.1601 14.6389 16.1423 14.3773C16.1221 14.0817 16.0053 13.7896 15.7716 13.2055L14.8804 10.9774C14.5346 10.1129 14.3617 9.6807 14.0634 9.39739C13.8006 9.14775 13.4713 8.97935 13.115 8.91246C12.7107 8.83655 12.2591 8.94946 11.3559 9.17526L8.88867 9.79213C8.88867 22.3327 17.6668 31.1111 30.208 31.1111L30.8245 28.6436C31.0504 27.7405 31.1632 27.2888 31.0874 26.8846C31.0204 26.5283 30.8521 26.199 30.6024 25.9361C30.3191 25.6379 29.8868 25.465 29.0224 25.1192L27.0341 24.3239C26.3676 24.0573 26.0344 23.924 25.7022 23.9138C25.4085 23.9048 25.1169 23.9646 24.8506 24.0887C24.5492 24.2289 24.2955 24.4827 23.788 24.9902L19.9174 28.7998" fill="#051480"/>
<path d="M11.5423 20.736L15.3529 16.1711C15.7391 15.6745 15.9323 15.4262 16.0335 15.1477C16.123 14.9013 16.1601 14.6389 16.1423 14.3773C16.1221 14.0817 16.0053 13.7896 15.7716 13.2055L14.8804 10.9774C14.5346 10.1129 14.3617 9.6807 14.0634 9.39739C13.8006 9.14775 13.4713 8.97935 13.115 8.91246C12.7107 8.83655 12.2591 8.94946 11.3559 9.17526L8.88867 9.79213C8.88867 22.3327 17.6668 31.1111 30.208 31.1111L30.8245 28.6436C31.0504 27.7405 31.1632 27.2888 31.0874 26.8846C31.0204 26.5283 30.8521 26.199 30.6024 25.9361C30.3191 25.6379 29.8868 25.465 29.0224 25.1192L27.0341 24.3239C26.3676 24.0573 26.0344 23.924 25.7022 23.9138C25.4085 23.9048 25.1169 23.9646 24.8506 24.0887C24.5492 24.2289 24.2955 24.4827 23.788 24.9902L19.9174 28.7998" stroke="#051480" stroke-width="1.73611" stroke-linecap="round" stroke-linejoin="round"/>
</svg>
