<svg width="24" height="24" viewBox="0 0 24 24" fill="none" xmlns="http://www.w3.org/2000/svg">
<path fill-rule="evenodd" clip-rule="evenodd" d="M12.0004 18.6C15.6455 18.6 18.6004 15.6451 18.6004 12C18.6004 8.35494 15.6455 5.40002 12.0004 5.40002C8.35531 5.40002 5.40039 8.35494 5.40039 12C5.40039 15.6451 8.35531 18.6 12.0004 18.6ZM12.0004 16.4C14.4304 16.4 16.4004 14.43 16.4004 12C16.4004 9.56997 14.4304 7.60002 12.0004 7.60002C9.57034 7.60002 7.60039 9.56997 7.60039 12C7.60039 14.43 9.57034 16.4 12.0004 16.4Z" fill="white"/>
<path d="M18.6004 4.20001C17.9376 4.20001 17.4004 4.73728 17.4004 5.40001C17.4004 6.06275 17.9376 6.60001 18.6004 6.60001C19.2632 6.60001 19.8004 6.06275 19.8004 5.40001C19.8004 4.73728 19.2632 4.20001 18.6004 4.20001Z" fill="white"/>
<path fill-rule="evenodd" clip-rule="evenodd" d="M0.713411 3.57388C0 4.97403 0 6.80693 0 10.4727V13.5273C0 17.1931 0 19.026 0.713411 20.4261C1.34095 21.6577 2.34227 22.6591 3.57388 23.2865C4.97403 24 6.80693 24 10.4727 24H13.5273C17.1931 24 19.026 24 20.4261 23.2865C21.6577 22.6591 22.6591 21.6577 23.2865 20.4261C24 19.026 24 17.1931 24 13.5273V10.4727C24 6.80693 24 4.97403 23.2865 3.57388C22.6591 2.34227 21.6577 1.34095 20.4261 0.713411C19.026 0 17.1931 0 13.5273 0H10.4727C6.80693 0 4.97403 0 3.57388 0.713411C2.34227 1.34095 1.34095 2.34227 0.713411 3.57388ZM13.5273 2.18182H10.4727C8.60383 2.18182 7.33336 2.18352 6.35136 2.26375C5.39481 2.3419 4.90564 2.48355 4.56441 2.65742C3.74333 3.07579 3.07579 3.74333 2.65742 4.56441C2.48355 4.90564 2.3419 5.39481 2.26375 6.35136C2.18352 7.33336 2.18182 8.60383 2.18182 10.4727V13.5273C2.18182 15.3962 2.18352 16.6666 2.26375 17.6486C2.3419 18.6052 2.48355 19.0944 2.65742 19.4356C3.07579 20.2567 3.74333 20.9242 4.56441 21.3425C4.90564 21.5164 5.39481 21.6581 6.35136 21.7363C7.33336 21.8164 8.60383 21.8182 10.4727 21.8182H13.5273C15.3962 21.8182 16.6666 21.8164 17.6486 21.7363C18.6052 21.6581 19.0944 21.5164 19.4356 21.3425C20.2567 20.9242 20.9242 20.2567 21.3425 19.4356C21.5164 19.0944 21.6581 18.6052 21.7363 17.6486C21.8164 16.6666 21.8182 15.3962 21.8182 13.5273V10.4727C21.8182 8.60383 21.8164 7.33336 21.7363 6.35136C21.6581 5.39481 21.5164 4.90564 21.3425 4.56441C20.9242 3.74333 20.2567 3.07579 19.4356 2.65742C19.0944 2.48355 18.6052 2.3419 17.6486 2.26375C16.6666 2.18352 15.3962 2.18182 13.5273 2.18182Z" fill="white"/>
</svg>
