<svg width="38" height="38" viewBox="0 0 38 38" fill="none" xmlns="http://www.w3.org/2000/svg">
<g id="Icon/salaris">
<circle id="Oval" cx="19" cy="19" r="19" fill="#007D9E"/>
<path id="Path" d="M28.1709 23.0597H24.1736C23.9803 23.0597 23.7929 23.1312 23.6406 23.2486C22.6948 23.9815 21.5029 24.4195 20.2056 24.4195C17.9478 24.4195 16.0004 23.094 15.1365 21.1959H20.2056C20.5277 21.1959 20.7913 20.9383 20.7913 20.6233C20.7913 20.3084 20.5277 20.0508 20.2056 20.0508H14.7676C14.6563 19.5068 14.6299 18.9314 14.7002 18.3416C14.7148 18.2099 14.7383 18.0782 14.7646 17.9494H20.2027C20.5248 17.9494 20.7884 17.6917 20.7884 17.3768C20.7884 17.0619 20.5248 16.8042 20.2027 16.8042H15.1365C15.9096 15.1094 17.5496 13.8583 19.494 13.6236C21.0636 13.4346 22.5249 13.8841 23.6406 14.7516C23.7929 14.8718 23.9803 14.9405 24.1736 14.9405H28.168C28.821 14.9405 29.2193 14.2362 28.8708 13.6951C27.0669 10.8781 23.8573 9 20.2056 9C15.3386 9 11.2535 12.3439 10.2285 16.8042H8.58568C8.26356 16.8042 8 17.0619 8 17.3768C8 17.6917 8.26356 17.9494 8.58568 17.9494H10.0352C9.96204 18.6308 9.96204 19.335 10.0352 20.0508H8.58568C8.26356 20.0508 8 20.3084 8 20.6233C8 20.9383 8.26356 21.1959 8.58568 21.1959H10.2256C11.1715 25.3299 14.7763 28.5192 19.1572 28.9486C23.2277 29.3466 26.8824 27.397 28.8679 24.3136C29.2193 23.7697 28.8298 23.0597 28.1709 23.0597Z" fill="white"/>
</g>
</svg>
