<svg width="39" height="38" viewBox="0 0 39 38" fill="none" xmlns="http://www.w3.org/2000/svg">
<path fill-rule="evenodd" clip-rule="evenodd" d="M9 37.5H29.625C30.3438 37.5 31.0312 37.2842 31.6875 36.8525C32.3438 36.4208 32.8125 35.8967 33.0938 35.28L38.7188 22.2375C38.7812 22.0217 38.8438 21.7904 38.9062 21.5438C38.9688 21.2971 39 21.0658 39 20.85V17.15C39 16.1633 38.625 15.3 37.875 14.56C37.125 13.82 36.25 13.45 35.25 13.45H23.1562L25.2188 5.4025V4.755C25.2188 4.41583 25.1484 4.06125 25.0078 3.69125C24.8672 3.32125 24.6875 3.02833 24.4688 2.8125L22.125 0.5L9 13.45V13.5H0V37.5H9ZM9 33.8077V17.1923H3.6V33.8077H9ZM29.5 33.5H13V14.6L20.975 6.5L18.5 16.7414H35V20.4655L29.5 33.5Z" fill="#55B2B6"/>
</svg>
