<svg width="29" height="22" viewBox="0 0 29 22" fill="none" xmlns="http://www.w3.org/2000/svg">
<path fill-rule="evenodd" clip-rule="evenodd" d="M24.6598 21.4023C25.944 21.1613 27.3116 20.0695 27.8418 18.8641C27.8898 18.7559 29 16.1764 29 11C29 5.82358 27.8898 3.24317 27.8427 3.135C27.3116 1.92958 25.944 0.83875 24.6589 0.59675C24.5284 0.572917 21.39 0 14.4905 0C7.61002 0 4.46886 0.572917 4.33835 0.597667C3.05416 0.83875 1.68568 1.92958 1.1546 3.13592C1.10747 3.24317 0 5.82358 0 11C0 16.1764 1.10747 18.7559 1.1546 18.8632C1.68568 20.0695 3.05416 21.1612 4.33835 21.4032C4.46886 21.4271 7.61002 22 14.4905 22H14.5086C21.39 22 24.5284 21.4271 24.6598 21.4023ZM24.3281 2.39983C25.0151 2.52908 25.9014 3.23492 26.1842 3.8775C26.1942 3.90042 27.1856 6.26083 27.1856 11C27.1856 15.7392 26.1942 18.0987 26.1851 18.1188C25.9014 18.7651 25.016 19.4709 24.329 19.6002C24.2991 19.6057 21.1933 20.1667 14.5086 20.1667H14.4905C7.80668 20.1667 4.69815 19.6057 4.66915 19.6002C3.98128 19.4709 3.09585 18.7651 2.81399 18.1225C2.80312 18.0987 1.81346 15.7392 1.81346 11C1.81346 6.25992 2.80312 3.90042 2.81218 3.88117C3.09585 3.23492 3.98128 2.52908 4.66824 2.39983C4.69815 2.39433 7.80668 1.83333 14.5086 1.83333C21.1933 1.83333 24.2991 2.39433 24.3281 2.39983ZM12.271 16.3588C12.1242 16.4532 11.9556 16.5 11.788 16.5C11.6375 16.5 11.4871 16.4624 11.3502 16.3854C11.0611 16.2241 10.8817 15.917 10.8817 15.5833V6.41667C10.8817 6.08392 11.0593 5.77775 11.3466 5.61642C11.6339 5.45417 11.9864 5.4615 12.2647 5.63658L19.5321 10.1796C19.7976 10.3455 19.9608 10.6388 19.9617 10.9551C19.9626 11.2713 19.8031 11.5665 19.5385 11.7343L12.271 16.3588ZM12.6951 13.9233V8.06117L17.3425 10.9661L12.6951 13.9233Z" fill="white"/>
</svg>
