<svg width="38" height="38" viewBox="0 0 38 38" fill="none" xmlns="http://www.w3.org/2000/svg">
<circle cx="19" cy="19" r="19" fill="#007D9E"/>
<path fill-rule="evenodd" clip-rule="evenodd" d="M8 18.9981C8 12.9247 12.9238 8 19 8C25.0762 8 30 12.9208 30 18.9981C30 25.0753 25.0762 30 19 30C12.9238 30 8 25.0714 8 18.9981ZM13.1139 16.7977C13.1139 17.015 13.2847 17.1857 13.5019 17.1857C13.7153 17.1857 13.8899 17.015 13.8899 16.7977C13.8899 16.103 14.4564 15.5364 15.151 15.5364C15.8455 15.5364 16.412 16.103 16.412 16.7977C16.412 17.015 16.5866 17.1857 16.8 17.1857C17.0134 17.1857 17.188 17.015 17.188 16.7977C17.188 15.6761 16.2762 14.7603 15.151 14.7603C14.0257 14.7603 13.1139 15.6761 13.1139 16.7977ZM24.3855 24.2254C22.946 25.6652 21.0564 26.3831 19.163 26.3831C17.2695 26.3831 15.3799 25.6652 13.9404 24.2254C13.7891 24.0741 13.7891 23.8257 13.9404 23.6744C14.0917 23.523 14.3362 23.523 14.4875 23.6744C15.7795 24.9628 17.4713 25.6109 19.163 25.6109C20.8547 25.6109 22.5503 24.9628 23.8384 23.6744C23.9898 23.523 24.2342 23.523 24.3855 23.6744C24.5369 23.8257 24.5369 24.0741 24.3855 24.2254ZM24.1101 16.7977C24.1101 17.015 24.2847 17.1857 24.4981 17.1857C24.7153 17.1857 24.8861 17.015 24.8861 16.7977C24.8861 15.6761 23.9704 14.7603 22.849 14.7603C21.7277 14.7603 20.812 15.6761 20.812 16.7977C20.812 17.015 20.9866 17.1857 21.2 17.1857C21.4134 17.1857 21.588 17.015 21.588 16.7977C21.588 16.103 22.1545 15.5364 22.849 15.5364C23.5436 15.5364 24.1101 16.103 24.1101 16.7977Z" fill="white"/>
</svg>
