<svg width="38" height="38" viewBox="0 0 38 38" fill="none" xmlns="http://www.w3.org/2000/svg">
<g id="Icon">
<circle id="Oval" cx="19" cy="19" r="19" fill="#007D9E"/>
<path id="Path 2" fill-rule="evenodd" clip-rule="evenodd" d="M11.8003 9H25.3011H27.1014C26.1076 9 25.3011 9.79338 25.3011 10.771V28.1129C25.3011 28.9001 24.3327 29.2968 23.7643 28.7377L18.2872 23.3495C17.9347 23.0028 17.3664 23.0028 17.0139 23.3495L11.5368 28.7377C10.9684 29.2968 10 28.9032 10 28.1129V10.771C10 9.79338 10.8065 9 11.8003 9ZM26.2029 10.7679C26.2029 10.2807 26.6029 9.88396 27.1014 9.88396V9.88709C27.5968 9.88709 28 10.2807 28 10.771V15.194C28 15.6813 27.5968 16.0779 27.1014 16.0779C26.6061 16.0779 26.2029 15.6844 26.2029 15.194V10.7679Z" fill="white"/>
</g>
</svg>
