<svg width="39" height="38" viewBox="0 0 39 38" fill="none" xmlns="http://www.w3.org/2000/svg">
<path fill-rule="evenodd" clip-rule="evenodd" d="M9 0.5H29.625C30.3438 0.5 31.0312 0.715832 31.6875 1.1475C32.3438 1.57917 32.8125 2.10334 33.0938 2.72L38.7188 15.7625C38.7812 15.9783 38.8438 16.2096 38.9062 16.4562C38.9688 16.7029 39 16.9342 39 17.15V20.85C39 21.8367 38.625 22.7 37.875 23.44C37.125 24.18 36.25 24.55 35.25 24.55H23.1562L25.2188 32.5975V33.245C25.2188 33.5842 25.1484 33.9387 25.0078 34.3087C24.8672 34.6788 24.6875 34.9717 24.4688 35.1875L22.125 37.5L9 24.55V24.5H0V0.5H9ZM9 4.19231V20.8077H3.6V4.19231H9ZM29.5 4.5H13V23.4L20.975 31.5L18.5 21.2586H35V17.5345L29.5 4.5Z" fill="#DB7978"/>
</svg>
