<?xml version="1.0" encoding="UTF-8"?>
<svg id="Laag_2" data-name="Laag 2" xmlns="http://www.w3.org/2000/svg" viewBox="0 0 307.46 132.93">
  <defs>
    <style>
      .cls-1 {
        fill: #041480;
      }

      .cls-2 {
        fill: #006a8f;
      }

      .cls-3 {
        fill: #05006e;
      }

      .cls-4 {
        fill: #02afaf;
      }

      .cls-5 {
        fill: #08c;
      }

      .cls-6 {
        fill: #000054;
      }

      .cls-7 {
        fill: #f6c970;
      }

      .cls-8 {
        fill: #fff;
      }

      .cls-9 {
        fill: #fc833f;
      }

      .cls-10 {
        fill: #de1380;
      }

      .cls-11 {
        fill: #e35b62;
      }

      .cls-12 {
        opacity: .3;
      }

      .cls-13 {
        isolation: isolate;
      }
    </style>
  </defs>
  <g id="Laag_2-2" data-name="Laag 2-2">
    <g id="Layer_1" data-name="Layer 1">
      <g>
        <path class="cls-3" d="m126.71,60.59V9.12h13.35v32.3c3.93-6.17,10.54-9.53,18.5-9.53,13.46,0,27.59,9.64,27.59,28.6,0,17.61-12.34,29.72-29.94,29.72s-29.5-11.66-29.5-29.61h0Zm45.98.45c0-9.76-6.62-16.71-16.37-16.71s-16.26,6.95-16.26,16.71,6.5,16.71,16.26,16.71,16.37-6.95,16.37-16.71Z"/>
        <path class="cls-3" d="m194.42,61.04c0-16.82,12.34-29.16,29.83-29.16,15.03,0,26.02,9.08,28.71,22.21h-13.46c-2.36-5.94-7.96-9.76-15.25-9.76-9.76,0-16.37,6.95-16.37,16.71s6.62,16.71,16.37,16.71c7.29,0,12.9-3.81,15.25-9.76h13.46c-2.69,13.12-13.68,22.21-28.71,22.21-17.5,0-29.83-12.34-29.83-29.16Z"/>
        <path class="cls-3" d="m260.91,72.37h13.46c.11,3.7,3.36,6.17,9.87,6.17,6.84,0,9.76-2.8,9.76-6.17,0-4.26-4.93-4.82-10.88-5.61-8.52-1.12-21.08-2.58-21.08-16.15,0-11.33,8.64-18.73,21.98-18.73s21.87,7.63,22.21,17.38h-13.23c-.34-3.36-3.48-5.72-8.75-5.72-5.83,0-8.75,2.8-8.75,6.06,0,4.26,5.05,4.93,10.99,5.72,7.4,1.01,20.97,2.47,20.97,16.26,0,11.22-9.08,18.62-23.22,18.62s-22.99-7.51-23.33-17.83Z"/>
        <g id="Laag_1-2" data-name="Laag 1-2">
          <g>
            <g>
              <polygon class="cls-11" points="51.19 51.19 51.19 0 14.99 14.99 14.99 14.99 51.19 51.19 51.19 51.19"/>
              <polygon class="cls-5" points="51.19 51.19 102.38 51.19 87.38 14.99 51.19 51.19 51.19 51.19"/>
              <polygon class="cls-10" points="87.38 14.99 87.38 14.99 51.19 0 51.19 51.19 87.38 14.99"/>
              <polygon class="cls-9" points="14.99 14.99 0 51.19 51.19 51.19 14.99 14.99"/>
              <polygon class="cls-2" points="51.19 102.38 87.38 87.38 51.19 51.19 51.19 102.38"/>
              <polygon class="cls-3" points="102.38 51.19 51.19 51.19 51.19 51.19 87.38 87.38 87.38 87.38 102.38 51.19"/>
              <polygon class="cls-4" points="51.19 51.19 14.99 87.38 51.19 102.38 51.19 51.19 51.19 51.19"/>
              <polygon class="cls-7" points="0 51.19 14.99 87.38 14.99 87.38 51.19 51.19 0 51.19"/>
            </g>
            <g class="cls-12">
              <polygon class="cls-8" points="51.19 56.36 87.38 87.38 51.19 51.19 51.19 56.36"/>
              <polygon class="cls-8" points="47.53 54.85 51.19 102.38 51.19 51.19 47.53 54.85"/>
              <polygon class="cls-8" points="46.01 51.19 14.99 87.38 51.19 51.19 46.01 51.19"/>
              <polygon class="cls-8" points="47.53 47.53 0 51.19 51.19 51.19 47.53 47.53"/>
              <polygon class="cls-8" points="51.19 46.01 14.99 14.99 51.19 51.19 51.19 46.01"/>
              <polygon class="cls-8" points="54.85 47.53 51.19 0 51.19 51.19 54.85 47.53"/>
              <polygon class="cls-8" points="56.36 51.19 87.38 14.99 51.19 51.19 56.36 51.19"/>
              <polygon class="cls-8" points="54.85 54.85 102.38 51.19 51.19 51.19 54.85 54.85"/>
            </g>
            <circle class="cls-8" cx="51.33" cy="51.26" r="5.1"/>
            <circle class="cls-6" cx="51.33" cy="51.26" r="3.4"/>
          </g>
        </g>
      </g>
    </g>
    <g class="cls-13">
      <g class="cls-13">
        <path class="cls-1" d="m142.62,123.18v-9.18h-11.7v9.18h-2.49v-20.01h2.49v8.61h11.7v-8.61h2.49v20.01h-2.49Z"/>
        <path class="cls-1" d="m161.37,123.18l-5.1-7.95h-3.99v7.95h-2.49v-20.01h8.04c3.66,0,6.27,2.34,6.27,6.03s-2.46,5.58-5.19,5.82l5.4,8.16h-2.94Zm-3.84-17.79h-5.25v7.65h5.25c2.37,0,3.99-1.59,3.99-3.84s-1.62-3.81-3.99-3.81Z"/>
        <path class="cls-1" d="m176.04,118.47c1.32,1.47,3.48,2.85,6.3,2.85,3.57,0,4.71-1.92,4.71-3.45,0-2.4-2.43-3.06-5.07-3.78-3.21-.84-6.78-1.74-6.78-5.67,0-3.3,2.94-5.55,6.87-5.55,3.06,0,5.43,1.02,7.11,2.79l-1.5,1.83c-1.5-1.65-3.6-2.4-5.79-2.4-2.4,0-4.11,1.29-4.11,3.18,0,2.01,2.31,2.61,4.86,3.3,3.27.87,6.99,1.89,6.99,6.09,0,2.91-1.98,5.88-7.38,5.88-3.48,0-6.03-1.32-7.68-3.18l1.47-1.89Z"/>
        <path class="cls-1" d="m192.42,115.92c0-4.2,2.76-7.59,7.17-7.59s7.17,3.39,7.17,7.59-2.76,7.62-7.17,7.62-7.17-3.42-7.17-7.62Zm11.97,0c0-2.94-1.71-5.58-4.8-5.58s-4.83,2.64-4.83,5.58,1.74,5.61,4.83,5.61,4.8-2.64,4.8-5.61Z"/>
        <path class="cls-1" d="m213.3,110.67v12.51h-2.25v-12.51h-2.4v-1.98h2.4v-1.11c0-3,1.68-4.71,4.2-4.71.84,0,1.62.15,2.19.51l-.57,1.68c-.36-.21-.78-.33-1.29-.33-1.47,0-2.28,1.02-2.28,2.85v1.11h2.94v1.98h-2.94Z"/>
        <path class="cls-1" d="m219.36,120.15v-9.48h-2.4v-1.98h2.4v-3.96h2.25v3.96h2.94v1.98h-2.94v9c0,1.08.48,1.86,1.47,1.86.63,0,1.23-.27,1.53-.6l.66,1.68c-.57.54-1.38.93-2.7.93-2.13,0-3.21-1.23-3.21-3.39Z"/>
        <path class="cls-1" d="m240.27,123.18l-3.78-11.64-3.78,11.64h-2.25l-4.62-14.49h2.34l3.54,11.55,3.81-11.55h1.92l3.81,11.55,3.54-11.55h2.34l-4.62,14.49h-2.25Z"/>
        <path class="cls-1" d="m258.81,123.18v-1.65c-1.2,1.32-2.85,2.01-4.8,2.01-2.46,0-5.07-1.65-5.07-4.8s2.61-4.77,5.07-4.77c1.98,0,3.63.63,4.8,1.98v-2.61c0-1.95-1.56-3.06-3.66-3.06-1.74,0-3.15.63-4.44,2.01l-1.05-1.56c1.56-1.62,3.42-2.4,5.79-2.4,3.06,0,5.61,1.38,5.61,4.89v9.96h-2.25Zm0-5.79c-.87-1.2-2.4-1.8-3.99-1.8-2.1,0-3.57,1.32-3.57,3.18s1.47,3.15,3.57,3.15c1.59,0,3.12-.6,3.99-1.8v-2.73Z"/>
        <path class="cls-1" d="m265.56,123.18v-14.49h2.25v2.34c1.17-1.53,2.85-2.64,4.83-2.64v2.31c-.27-.06-.54-.09-.9-.09-1.38,0-3.27,1.14-3.93,2.31v10.26h-2.25Z"/>
        <path class="cls-1" d="m281.76,108.33c4.38,0,6.96,3.42,6.96,7.77v.57h-11.73c.18,2.73,2.1,5.01,5.22,5.01,1.65,0,3.33-.66,4.47-1.83l1.08,1.47c-1.44,1.44-3.39,2.22-5.76,2.22-4.29,0-7.38-3.09-7.38-7.62,0-4.2,3-7.59,7.14-7.59Zm-4.77,6.69h9.51c-.03-2.16-1.47-4.83-4.77-4.83-3.09,0-4.62,2.61-4.74,4.83Z"/>
      </g>
    </g>
  </g>
</svg>